<svg width="1182" height="1182" viewBox="0 0 1182 1182" fill="none" xmlns="http://www.w3.org/2000/svg">
<rect width="1182" height="1182" fill="#FFFFFF"/>
<path d="M583.305 179C799.969 179 975.61 354.641 975.61 571.306C975.61 638.801 958.564 702.314 928.544 757.777L846.692 675.927C859.561 643.559 866.637 608.259 866.637 571.306C866.637 414.826 739.784 287.974 583.305 287.974C426.825 287.974 299.974 414.826 299.974 571.306C299.974 727.785 426.825 854.637 583.305 854.637C605.595 854.637 627.285 852.061 648.092 847.194L734.366 933.47C687.871 952.886 636.84 963.611 583.305 963.611C366.641 963.611 191 787.97 191 571.306C191 354.641 366.641 179 583.305 179Z" fill="#FF6B35"/>
<rect x="664.281" y="645.066" width="69.7432" height="392.305" transform="rotate(-45 664.281 645.066)" fill="#FF6B35"/>
<rect x="584.141" y="725.196" width="69.7432" height="392.305" transform="rotate(-45 584.141 725.196)" fill="#FF6B35"/>
</svg>
